<svg xmlns="http://www.w3.org/2000/svg" width="15.462" height="15.462"><path data-name="Path 1409" d="M11.195 0H4.267A4.272 4.272 0 000 4.267v6.928a4.272 4.272 0 004.267 4.267h6.928a4.272 4.272 0 004.267-4.267V4.267A4.272 4.272 0 0011.195 0zm2.9 11.195a2.9 2.9 0 01-2.9 2.9H4.267a2.9 2.9 0 01-2.895-2.9V4.267a2.9 2.9 0 012.895-2.9h6.928a2.9 2.9 0 012.9 2.9v6.928z" fill="#14a5da"/><path data-name="Path 1410" d="M7.731 3.747a3.984 3.984 0 103.984 3.984 3.989 3.989 0 00-3.984-3.984zm0 6.6a2.612 2.612 0 112.612-2.612 2.615 2.615 0 01-2.612 2.608z" fill="#14a5da"/><path data-name="Path 1411" d="M11.882 2.584a1.005 1.005 0 10.712.294 1.01 1.01 0 00-.712-.294z" fill="#14a5da"/></svg>