<svg xmlns="http://www.w3.org/2000/svg" width="10.913" height="15.6" viewBox="0 0 10.913 15.6"><g data-name="Group 27"><g data-name="Group 26"><path data-name="Path 1412" d="M5.454 0a3.9 3.9 0 103.9 3.9 3.9 3.9 0 00-3.9-3.9zm0 5.85a1.95 1.95 0 111.95-1.95 1.952 1.952 0 01-1.95 1.95z" fill="#14a5da"/></g></g><g data-name="Group 29"><g data-name="Group 28"><path data-name="Path 1413" d="M10.628 7.692a.974.974 0 00-1.379 0 5.37 5.37 0 01-7.584 0 .975.975 0 10-1.379 1.38 7.268 7.268 0 004.336 2.085l-2.78 2.78a.975.975 0 101.379 1.379l2.236-2.236 2.236 2.236a.975.975 0 101.379-1.379l-2.78-2.78a7.268 7.268 0 004.336-2.085.976.976 0 000-1.38z" fill="#14a5da"/></g></g></svg>